<svg height="280"><defs><linearGradient id="lgrad" x1="0%" y1="100%" x2="100%" y2="0%"><stop offset="0%" style="stop-color:rgb(191,185,220);stop-opacity:1"></stop><stop offset="100%" style="stop-color:rgb(0,128,128);stop-opacity:1"></stop></linearGradient><filter id="glow"><feGaussianBlur stdDeviation="2.5" result="coloredBlur"><feMerge><feMergeNode in="coloredBlur"></feMergeNode><feMergeNode in="SourceGraphic"></feMergeNode></feMerge></feGaussianBlur></filter></defs><line x1="32" y1="260" x2="1088" y2="260" stroke="#D4D4FF" stroke-width="1" filter="url(#glow)"></line><line x1="32" y1="260" x2="32" y2="20" stroke="#D4D4FF" stroke-width="1"></line><path d="M32,242.85714285714286L35.52,251.42857142857144L39.04,259.1428571428571L42.56,248L46.08,243.71428571428572L49.599999999999994,249.71428571428572L53.120000000000005,252.28571428571428L56.64,254.85714285714283L60.160000000000004,257.42857142857144L63.68,244.57142857142856L67.2,236.85714285714286L70.72,244.57142857142856L74.24000000000001,254L77.76,248L81.28,241.14285714285717L84.80000000000001,227.42857142857144L88.32000000000001,216.28571428571428L91.84,234.2857142857143L95.36,250.57142857142858L98.88,242.85714285714286L102.4,254L105.92000000000002,240.28571428571428L109.44,246.28571428571428L112.96,254.85714285714283L116.48,250.57142857142858L119.99999999999999,251.42857142857144L123.52000000000001,242L127.04,254.85714285714283L130.56,234.2857142857143L134.07999999999998,250.57142857142858L137.60000000000002,245.42857142857144L141.12,230.85714285714283L144.64000000000001,240.28571428571428L148.16,239.42857142857142L151.68,259.1428571428571L155.2,250.57142857142858L158.72,242.85714285714286L162.24,258.28571428571433L165.76,238.57142857142856L169.28,236.85714285714286L172.8,226.57142857142858L176.32,207.71428571428572L179.84000000000003,214.57142857142856L183.36,198.28571428571428L186.88,215.42857142857144L190.39999999999998,218L193.92,203.42857142857142L197.44,189.7142857142857L200.96,187.14285714285714L204.48,167.42857142857144L207.99999999999997,182.85714285714286L211.52,179.42857142857144L215.04000000000002,179.42857142857144L218.56,170.85714285714283L222.08,156.28571428571428L225.59999999999997,168.28571428571428L229.12,154.57142857142856L232.64,161.42857142857144L236.16,173.42857142857142L239.68,182.85714285714286L243.20000000000002,188L246.72,188.85714285714283L250.23999999999998,194L253.76,188L257.28000000000003,181.14285714285717L260.8,189.7142857142857L264.32,182.85714285714286L267.84,176L271.35999999999996,175.14285714285714L274.88,174.28571428571428L278.4,180.2857142857143L281.92,195.71428571428572L285.44,180.2857142857143L288.96,182L292.48,187.14285714285714L296,204.28571428571428L299.52,214.57142857142856L303.04,196.57142857142858L306.56,202.57142857142856L310.08,213.71428571428572L313.6,201.71428571428572L317.12,181.14285714285717L320.64,194.85714285714286L324.15999999999997,200L327.68000000000006,204.28571428571428L331.2,188L334.72,169.14285714285717L338.24,176L341.76,190.57142857142856L345.28000000000003,190.57142857142856L348.79999999999995,183.71428571428572L352.32000000000005,189.7142857142857L355.84,189.7142857142857L359.35999999999996,183.71428571428572L362.88000000000005,186.28571428571428L366.4,183.71428571428572L369.92,195.71428571428572L373.43999999999994,212L376.96,210.28571428571428L380.48,197.42857142857144L383.99999999999994,191.42857142857144L387.52000000000004,175.14285714285714L391.04,179.42857142857144L394.56,181.14285714285717L398.08000000000004,197.42857142857144L401.59999999999997,178.57142857142856L405.12,166.57142857142858L408.64,149.42857142857144L412.16,135.7142857142857L415.68,157.14285714285714L419.19999999999993,155.42857142857144L422.72,152.85714285714286L426.24,138.28571428571428L429.76,133.14285714285714L433.28,136.57142857142858L436.80000000000007,154.57142857142856L440.32,174.28571428571428L443.84,169.14285714285717L447.36,181.14285714285717L450.88,171.71428571428572L454.40000000000003,180.2857142857143L457.91999999999996,168.28571428571428L461.44,181.14285714285717L464.96,190.57142857142856L468.47999999999996,205.14285714285717L472.00000000000006,225.71428571428572L475.52,245.42857142857144L479.04,248L482.56000000000006,255.7142857142857L486.08,245.42857142857144L489.6,250.57142857142858L493.11999999999995,241.14285714285717L496.64000000000004,243.71428571428572L500.16,228.28571428571428L503.67999999999995,246.28571428571428L507.20000000000005,249.71428571428572L510.71999999999997,252.28571428571428L514.24,246.28571428571428L517.76,225.71428571428572L521.28,230L524.8000000000001,214.57142857142856L528.3199999999999,234.2857142857143L531.84,224.85714285714283L535.36,205.14285714285717L538.88,194.85714285714286L542.4,209.42857142857142L545.92,202.57142857142856L549.44,193.14285714285714L552.96,201.71428571428572L556.48,221.42857142857144L560,205.14285714285717L563.52,224.85714285714283L567.04,221.42857142857144L570.56,217.14285714285714L574.08,206.85714285714286L577.6000000000001,199.14285714285717L581.12,193.14285714285714L584.64,179.42857142857144L588.16,170.85714285714283L591.68,174.28571428571428L595.1999999999999,172.57142857142856L598.72,156.28571428571428L602.24,171.71428571428572L605.76,176L609.28,163.14285714285714L612.8000000000001,176.85714285714286L616.3199999999999,185.42857142857144L619.8399999999999,178.57142857142856L623.3600000000001,182.85714285714286L626.88,175.14285714285714L630.4,181.14285714285717L633.92,163.14285714285714L637.44,147.71428571428572L640.9599999999999,148.57142857142856L644.48,143.42857142857142L648.0000000000001,152L651.52,153.71428571428572L655.04,162.28571428571428L658.5600000000001,182.85714285714286L662.08,168.28571428571428L665.5999999999999,148.57142857142856L669.1200000000001,145.14285714285714L672.6400000000001,164.85714285714286L676.16,145.14285714285714L679.68,129.71428571428572L683.2,128.85714285714286L686.7199999999999,110L690.2399999999999,104L693.7600000000001,93.71428571428572L697.2800000000001,83.42857142857142L700.8,79.14285714285714L704.32,93.71428571428572L707.84,103.14285714285714L711.3599999999999,84.28571428571429L714.8799999999999,67.14285714285714L718.4000000000001,69.71428571428572L721.92,86.85714285714286L725.4399999999999,79.14285714285714L728.96,98.85714285714288L732.48,97.14285714285714L735.9999999999999,116.85714285714286L739.52,115.14285714285715L743.0400000000001,125.42857142857142L746.56,140.85714285714283L750.08,131.42857142857144L753.6,141.71428571428572L757.12,125.42857142857142L760.6399999999999,112.57142857142857L764.1600000000001,102.28571428571428L767.6800000000001,107.42857142857143L771.1999999999999,104.85714285714285L774.72,120.28571428571428L778.24,102.28571428571428L781.76,116.85714285714286L785.28,97.14285714285714L788.8000000000001,91.14285714285712L792.32,71.42857142857143L795.84,67.14285714285714L799.36,63.71428571428572L802.88,75.71428571428571L806.3999999999999,60.28571428571428L809.92,56.85714285714286L813.44,59.42857142857142L816.96,52.57142857142856L820.48,40.57142857142858L824,35.42857142857143L827.52,45.7142857142857L831.04,30.285714285714274L834.56,43.99999999999999L838.08,47.42857142857144L841.6000000000001,64.57142857142857L845.12,66.28571428571428L848.64,77.42857142857143L852.16,95.42857142857142L855.68,83.42857142857142L859.1999999999999,78.28571428571429L862.72,91.14285714285712L866.24,86L869.76,76.57142857142858L873.28,86L876.8000000000001,85.14285714285715L880.3199999999999,102.28571428571428L883.8399999999999,122.85714285714286L887.3600000000001,132.28571428571428L890.88,112.57142857142857L894.4,129.71428571428572L897.92,126.28571428571428L901.44,129.71428571428572L904.9599999999999,134L908.48,117.71428571428572L912.0000000000001,120.28571428571428L915.52,121.14285714285712L919.04,104.85714285714285L922.5600000000001,105.71428571428571L926.08,124.57142857142858L929.5999999999999,143.42857142857142L933.1200000000001,149.42857142857144L936.6400000000001,161.42857142857144L940.16,170L943.68,176.85714285714286L947.2,182.85714285714286L950.7199999999999,175.14285714285714L954.2399999999999,192.28571428571428L957.7600000000001,203.42857142857142L961.2800000000001,187.14285714285714L964.8,202.57142857142856L968.32,185.42857142857144L971.84,197.42857142857144L975.3599999999999,210.28571428571428L978.8799999999999,196.57142857142858L982.4000000000001,218L985.92,217.14285714285714L989.4399999999999,213.71428571428572L992.96,233.42857142857142L996.48,245.42857142857144L999.9999999999999,226.57142857142858L1003.52,239.42857142857142L1007.0400000000001,227.42857142857144L1010.56,232.57142857142856L1014.08,230L1017.6,227.42857142857144L1021.12,246.28571428571428L1024.6399999999999,233.42857142857142L1028.16,227.42857142857144L1031.68,234.2857142857143L1035.1999999999998,230.85714285714283L1038.72,246.28571428571428L1042.24,242.85714285714286L1045.76,253.14285714285714L1049.2800000000002,248L1052.8,256.57142857142856L1056.32,252.28571428571428L1059.84,237.71428571428572L1063.3600000000001,233.42857142857142L1066.88,242L1070.3999999999999,255.7142857142857L1073.92,247.14285714285714L1077.4399999999998,254.85714285714283L1080.96,258.28571428571433L1084.48,242L1084.48,260L1080.96,260L1077.4399999999998,260L1073.92,260L1070.3999999999999,260L1066.88,260L1063.3600000000001,260L1059.84,260L1056.32,260L1052.8,260L1049.2800000000002,260L1045.76,260L1042.24,260L1038.72,260L1035.1999999999998,260L1031.68,260L1028.16,260L1024.6399999999999,260L1021.12,260L1017.6,260L1014.08,260L1010.56,260L1007.0400000000001,260L1003.52,260L999.9999999999999,260L996.48,260L992.96,260L989.4399999999999,260L985.92,260L982.4000000000001,260L978.8799999999999,260L975.3599999999999,260L971.84,260L968.32,260L964.8,260L961.2800000000001,260L957.7600000000001,260L954.2399999999999,260L950.7199999999999,260L947.2,260L943.68,260L940.16,260L936.6400000000001,260L933.1200000000001,260L929.5999999999999,260L926.08,260L922.5600000000001,260L919.04,260L915.52,260L912.0000000000001,260L908.48,260L904.9599999999999,260L901.44,260L897.92,260L894.4,260L890.88,260L887.3600000000001,260L883.8399999999999,260L880.3199999999999,260L876.8000000000001,260L873.28,260L869.76,260L866.24,260L862.72,260L859.1999999999999,260L855.68,260L852.16,260L848.64,260L845.12,260L841.6000000000001,260L838.08,260L834.56,260L831.04,260L827.52,260L824,260L820.48,260L816.96,260L813.44,260L809.92,260L806.3999999999999,260L802.88,260L799.36,260L795.84,260L792.32,260L788.8000000000001,260L785.28,260L781.76,260L778.24,260L774.72,260L771.1999999999999,260L767.6800000000001,260L764.1600000000001,260L760.6399999999999,260L757.12,260L753.6,260L750.08,260L746.56,260L743.0400000000001,260L739.52,260L735.9999999999999,260L732.48,260L728.96,260L725.4399999999999,260L721.92,260L718.4000000000001,260L714.8799999999999,260L711.3599999999999,260L707.84,260L704.32,260L700.8,260L697.2800000000001,260L693.7600000000001,260L690.2399999999999,260L686.7199999999999,260L683.2,260L679.68,260L676.16,260L672.6400000000001,260L669.1200000000001,260L665.5999999999999,260L662.08,260L658.5600000000001,260L655.04,260L651.52,260L648.0000000000001,260L644.48,260L640.9599999999999,260L637.44,260L633.92,260L630.4,260L626.88,260L623.3600000000001,260L619.8399999999999,260L616.3199999999999,260L612.8000000000001,260L609.28,260L605.76,260L602.24,260L598.72,260L595.1999999999999,260L591.68,260L588.16,260L584.64,260L581.12,260L577.6000000000001,260L574.08,260L570.56,260L567.04,260L563.52,260L560,260L556.48,260L552.96,260L549.44,260L545.92,260L542.4,260L538.88,260L535.36,260L531.84,260L528.3199999999999,260L524.8000000000001,260L521.28,260L517.76,260L514.24,260L510.71999999999997,260L507.20000000000005,260L503.67999999999995,260L500.16,260L496.64000000000004,260L493.11999999999995,260L489.6,260L486.08,260L482.56000000000006,260L479.04,260L475.52,260L472.00000000000006,260L468.47999999999996,260L464.96,260L461.44,260L457.91999999999996,260L454.40000000000003,260L450.88,260L447.36,260L443.84,260L440.32,260L436.80000000000007,260L433.28,260L429.76,260L426.24,260L422.72,260L419.19999999999993,260L415.68,260L412.16,260L408.64,260L405.12,260L401.59999999999997,260L398.08000000000004,260L394.56,260L391.04,260L387.52000000000004,260L383.99999999999994,260L380.48,260L376.96,260L373.43999999999994,260L369.92,260L366.4,260L362.88000000000005,260L359.35999999999996,260L355.84,260L352.32000000000005,260L348.79999999999995,260L345.28000000000003,260L341.76,260L338.24,260L334.72,260L331.2,260L327.68000000000006,260L324.15999999999997,260L320.64,260L317.12,260L313.6,260L310.08,260L306.56,260L303.04,260L299.52,260L296,260L292.48,260L288.96,260L285.44,260L281.92,260L278.4,260L274.88,260L271.35999999999996,260L267.84,260L264.32,260L260.8,260L257.28000000000003,260L253.76,260L250.23999999999998,260L246.72,260L243.20000000000002,260L239.68,260L236.16,260L232.64,260L229.12,260L225.59999999999997,260L222.08,260L218.56,260L215.04000000000002,260L211.52,260L207.99999999999997,260L204.48,260L200.96,260L197.44,260L193.92,260L190.39999999999998,260L186.88,260L183.36,260L179.84000000000003,260L176.32,260L172.8,260L169.28,260L165.76,260L162.24,260L158.72,260L155.2,260L151.68,260L148.16,260L144.64000000000001,260L141.12,260L137.60000000000002,260L134.07999999999998,260L130.56,260L127.04,260L123.52000000000001,260L119.99999999999999,260L116.48,260L112.96,260L109.44,260L105.92000000000002,260L102.4,260L98.88,260L95.36,260L91.84,260L88.32000000000001,260L84.80000000000001,260L81.28,260L77.76,260L74.24000000000001,260L70.72,260L67.2,260L63.68,260L60.160000000000004,260L56.64,260L53.120000000000005,260L49.599999999999994,260L46.08,260L42.56,260L39.04,260L35.52,260L32,260Z" stroke="#BFB9DC" stroke-width="1" fill="url(#lgrad)"></path><line class="yGrids" y1="260" x1="32" y2="260" x2="1088" stroke="#D4D4FF" stroke-width="1"></line><line class="yGrids" y1="217.14285714285714" x1="32" y2="217.14285714285714" x2="1088" stroke="#D4D4FF" stroke-width="1"></line><line class="yGrids" y1="174.28571428571428" x1="32" y2="174.28571428571428" x2="1088" stroke="#D4D4FF" stroke-width="1"></line><line class="yGrids" y1="131.42857142857144" x1="32" y2="131.42857142857144" x2="1088" stroke="#D4D4FF" stroke-width="1"></line><line class="yGrids" y1="88.57142857142857" x1="32" y2="88.57142857142857" x2="1088" stroke="#D4D4FF" stroke-width="1"></line><line class="yGrids" y1="45.7142857142857" x1="32" y2="45.7142857142857" x2="1088" stroke="#D4D4FF" stroke-width="1"></line><text class="yLabel" x="25" y="265" text-anchor="end" filter="url(#glow)">0</text><text class="yLabel" x="25" y="222.14285714285714" text-anchor="end" filter="url(#glow)">50</text><text class="yLabel" x="25" y="179.28571428571428" text-anchor="end" filter="url(#glow)">100</text><text class="yLabel" x="25" y="136.42857142857144" text-anchor="end" filter="url(#glow)">150</text><text class="yLabel" x="25" y="93.57142857142857" text-anchor="end" filter="url(#glow)">200</text><text class="yLabel" x="25" y="50.7142857142857" text-anchor="end" filter="url(#glow)">250</text><text class="yLabelGlow" x="25" y="265" text-anchor="end">0</text><text class="yLabelGlow" x="25" y="222.14285714285714" text-anchor="end">50</text><text class="yLabelGlow" x="25" y="179.28571428571428" text-anchor="end">100</text><text class="yLabelGlow" x="25" y="136.42857142857144" text-anchor="end">150</text><text class="yLabelGlow" x="25" y="93.57142857142857" text-anchor="end">200</text><text class="yLabelGlow" x="25" y="50.7142857142857" text-anchor="end">250</text><text class="xLabel" x="32" y="275" text-anchor="middle">0</text><text class="xLabel" x="207.99999999999997" y="275" text-anchor="middle">50</text><text class="xLabel" x="383.99999999999994" y="275" text-anchor="middle">100</text><text class="xLabel" x="560" y="275" text-anchor="middle">150</text><text class="xLabel" x="735.9999999999999" y="275" text-anchor="middle">200</text><text class="xLabel" x="912.0000000000001" y="275" text-anchor="middle">250</text><text class="xLabel" x="1088" y="275" text-anchor="middle">300</text><line class="xTicks" x1="32" y1="260" x2="32" y2="265" stroke="#D40000" stroke-width="1"></line><line class="xTicks" x1="207.99999999999997" y1="260" x2="207.99999999999997" y2="265" stroke="#D40000" stroke-width="1"></line><line class="xTicks" x1="383.99999999999994" y1="260" x2="383.99999999999994" y2="265" stroke="#D40000" stroke-width="1"></line><line class="xTicks" x1="560" y1="260" x2="560" y2="265" stroke="#D40000" stroke-width="1"></line><line class="xTicks" x1="735.9999999999999" y1="260" x2="735.9999999999999" y2="265" stroke="#D40000" stroke-width="1"></line><line class="xTicks" x1="912.0000000000001" y1="260" x2="912.0000000000001" y2="265" stroke="#D40000" stroke-width="1"></line><line class="xTicks" x1="1088" y1="260" x2="1088" y2="265" stroke="#D40000" stroke-width="1"></line></svg>